<?xml version="1.0" encoding="UTF-8"?>
<svg xmlns="http://www.w3.org/2000/svg" xmlns:xlink="http://www.w3.org/1999/xlink" width="792pt" height="296pt" viewBox="244 237 792 296">
<path fill-rule="nonzero" fill="rgb(63.899231%, 51.399231%, 28.999329%)" fill-opacity="1" d="M 507.984375 427.140625 L 506.765625 430.527344 C 503.324219 431.835938 500.597656 432.746094 498.558594 433.257812 C 496.539062 433.765625 494.835938 434.023438 493.441406 434.023438 C 490.59375 434.023438 488.535156 433.289062 487.289062 431.824219 C 486.03125 430.355469 485.542969 428.546875 485.800781 426.386719 C 485.894531 425.613281 486.066406 424.757812 486.316406 423.816406 C 486.574219 422.882812 486.933594 421.773438 487.410156 420.503906 L 495.0625 400.722656 C 495.644531 399.203125 496.109375 397.828125 496.5 396.589844 C 496.882812 395.351562 497.109375 394.363281 497.199219 393.621094 C 497.484375 391.246094 497.199219 389.375 496.339844 387.996094 C 495.480469 386.617188 493.929688 385.925781 491.699219 385.925781 C 489.328125 385.925781 486.933594 386.488281 484.523438 387.601562 C 482.113281 388.714844 479.292969 390.796875 476.0625 393.839844 L 461.96875 433.121094 L 452.058594 433.121094 L 464.730469 397.703125 C 465 396.921875 465.265625 396.101562 465.53125 395.234375 C 465.796875 394.371094 465.953125 393.726562 466 393.300781 C 466.273438 391.003906 465.921875 389.203125 464.929688 387.894531 C 463.941406 386.589844 462.332031 385.925781 460.101562 385.925781 C 458.089844 385.925781 455.800781 386.433594 453.238281 387.441406 C 450.683594 388.449219 447.589844 390.703125 443.949219 394.207031 L 430.160156 433.121094 L 420.191406 433.121094 L 432.324219 398.761719 C 432.75 397.527344 433.1875 396.199219 433.628906 394.78125 C 434.066406 393.371094 434.34375 392.167969 434.457031 391.179688 C 434.707031 389.132812 434.535156 387.777344 433.933594 387.125 C 433.34375 386.46875 432.054688 386.140625 430.082031 386.140625 C 429.300781 386.140625 428.273438 386.285156 426.996094 386.589844 C 425.726562 386.882812 424.746094 387.121094 424.042969 387.300781 L 425.261719 383.890625 C 428.195312 382.644531 430.78125 381.722656 432.988281 381.117188 C 435.210938 380.511719 437.097656 380.207031 438.632812 380.207031 C 441.488281 380.207031 443.425781 380.980469 444.441406 382.519531 C 445.453125 384.054688 445.835938 386.148438 445.585938 388.796875 L 445.902344 388.796875 C 450.496094 385.511719 454.21875 383.160156 457.089844 381.746094 C 459.957031 380.332031 463.265625 379.628906 466.988281 379.628906 C 470.152344 379.628906 472.613281 380.535156 474.367188 382.355469 C 476.117188 384.175781 476.949219 386.46875 476.863281 389.226562 L 477.082031 389.226562 C 481.246094 386.078125 484.914062 383.691406 488.058594 382.0625 C 491.214844 380.441406 494.757812 379.628906 498.683594 379.628906 C 502.085938 379.628906 504.582031 380.609375 506.171875 382.570312 C 507.753906 384.535156 508.367188 387.101562 507.984375 390.285156 C 507.898438 390.921875 507.671875 392.054688 507.28125 393.675781 C 506.886719 395.300781 506.382812 396.910156 505.765625 398.503906 L 499.226562 415.527344 C 498.769531 416.65625 498.300781 417.957031 497.84375 419.425781 C 497.378906 420.894531 497.101562 422.03125 497.007812 422.847656 C 496.757812 424.863281 497.023438 426.230469 497.796875 426.953125 C 498.570312 427.675781 499.960938 428.039062 501.992188 428.039062 C 502.667969 428.039062 503.660156 427.953125 504.964844 427.773438 C 506.269531 427.601562 507.28125 427.386719 507.984375 427.140625 "/>
<path fill-rule="nonzero" fill="rgb(63.899231%, 51.399231%, 28.999329%)" fill-opacity="1" d="M 600.863281 427.140625 L 599.644531 430.527344 C 596.207031 431.835938 593.480469 432.746094 591.441406 433.257812 C 589.421875 433.765625 587.714844 434.023438 586.324219 434.023438 C 583.472656 434.023438 581.417969 433.289062 580.167969 431.824219 C 578.910156 430.355469 578.425781 428.546875 578.679688 426.386719 C 578.777344 425.613281 578.949219 424.757812 579.207031 423.816406 C 579.453125 422.882812 579.816406 421.773438 580.292969 420.503906 L 587.941406 400.722656 C 588.523438 399.203125 588.992188 397.828125 589.382812 396.589844 C 589.761719 395.351562 589.992188 394.363281 590.078125 393.621094 C 590.363281 391.246094 590.078125 389.375 589.21875 387.996094 C 588.363281 386.617188 586.808594 385.925781 584.582031 385.925781 C 582.207031 385.925781 579.816406 386.488281 577.402344 387.601562 C 574.992188 388.714844 572.171875 390.796875 568.941406 393.839844 L 554.847656 433.121094 L 544.9375 433.121094 L 557.613281 397.703125 C 557.878906 396.921875 558.144531 396.101562 558.414062 395.234375 C 558.679688 394.371094 558.832031 393.726562 558.878906 393.300781 C 559.15625 391.003906 558.804688 389.203125 557.8125 387.894531 C 556.820312 386.589844 555.210938 385.925781 552.980469 385.925781 C 550.96875 385.925781 548.683594 386.433594 546.121094 387.441406 C 543.566406 388.449219 540.46875 390.703125 536.828125 394.207031 L 523.039062 433.121094 L 513.074219 433.121094 L 525.203125 398.761719 C 525.632812 397.527344 526.070312 396.199219 526.507812 394.78125 C 526.945312 393.371094 527.222656 392.167969 527.339844 391.179688 C 527.585938 389.132812 527.414062 387.777344 526.8125 387.125 C 526.222656 386.46875 524.9375 386.140625 522.964844 386.140625 C 522.183594 386.140625 521.152344 386.285156 519.875 386.589844 C 518.609375 386.882812 517.628906 387.121094 516.921875 387.300781 L 518.140625 383.890625 C 521.078125 382.644531 523.648438 381.722656 525.871094 381.117188 C 528.089844 380.511719 529.976562 380.207031 531.511719 380.207031 C 534.371094 380.207031 536.304688 380.980469 537.316406 382.519531 C 538.335938 384.054688 538.714844 386.148438 538.46875 388.796875 L 538.78125 388.796875 C 543.375 385.511719 547.101562 383.160156 549.96875 381.746094 C 552.839844 380.332031 556.144531 379.628906 559.871094 379.628906 C 563.035156 379.628906 565.484375 380.535156 567.238281 382.355469 C 569 384.175781 569.828125 386.46875 569.742188 389.226562 L 569.960938 389.226562 C 574.125 386.078125 577.796875 383.691406 580.9375 382.0625 C 584.09375 380.441406 587.636719 379.628906 591.566406 379.628906 C 594.964844 379.628906 597.464844 380.609375 599.054688 382.570312 C 600.636719 384.535156 601.246094 387.101562 600.855469 390.285156 C 600.777344 390.921875 600.550781 392.054688 600.160156 393.675781 C 599.769531 395.300781 599.265625 396.910156 598.644531 398.503906 L 592.109375 415.527344 C 591.648438 416.65625 591.183594 417.957031 590.726562 419.425781 C 590.257812 420.894531 589.984375 422.03125 589.886719 422.847656 C 589.640625 424.863281 589.90625 426.230469 590.679688 426.953125 C 591.449219 427.675781 592.839844 428.039062 594.871094 428.039062 C 595.546875 428.039062 596.539062 427.953125 597.84375 427.773438 C 599.148438 427.601562 600.148438 427.386719 600.863281 427.140625 "/>
<path fill-rule="nonzero" fill="rgb(63.899231%, 51.399231%, 28.999329%)" fill-opacity="1" d="M 648.636719 398.445312 C 649.234375 393.425781 648.785156 389.660156 647.289062 387.15625 C 645.804688 384.640625 643.355469 383.386719 639.980469 383.386719 C 637.027344 383.386719 634.140625 384.289062 631.3125 386.089844 C 628.480469 387.898438 625.878906 390.828125 623.496094 394.894531 C 621.675781 397.96875 620.191406 401.390625 619.074219 405.15625 C 617.941406 408.917969 617.1875 412.398438 616.808594 415.574219 C 616.199219 420.628906 616.617188 424.457031 618.066406 427.054688 C 619.515625 429.648438 622.011719 430.949219 625.574219 430.949219 C 628.738281 430.949219 631.664062 429.964844 634.359375 427.984375 C 637.046875 426.003906 639.34375 423.492188 641.238281 420.449219 C 643.117188 417.484375 644.707031 414.078125 645.984375 410.25 C 647.261719 406.414062 648.148438 402.472656 648.636719 398.445312 M 659.269531 400.464844 C 658.773438 404.628906 657.5625 408.804688 655.628906 412.980469 C 653.714844 417.144531 651.207031 420.808594 648.128906 423.953125 C 644.996094 427.199219 641.382812 429.808594 637.285156 431.769531 C 633.199219 433.730469 628.605469 434.714844 623.515625 434.714844 C 617.617188 434.714844 613.054688 432.824219 609.832031 429.039062 C 606.59375 425.257812 605.371094 420.167969 606.136719 413.769531 C 606.707031 409.070312 608.011719 404.6875 610.0625 400.621094 C 612.117188 396.554688 614.644531 392.988281 617.644531 389.910156 C 620.6875 386.835938 624.277344 384.351562 628.441406 382.464844 C 632.597656 380.574219 636.972656 379.625 641.554688 379.625 C 647.890625 379.625 652.617188 381.542969 655.726562 385.378906 C 658.839844 389.21875 660.023438 394.246094 659.269531 400.464844 "/>
<path fill-rule="nonzero" fill="rgb(63.899231%, 51.399231%, 28.999329%)" fill-opacity="1" d="M 705.550781 400.144531 C 705.78125 398.269531 705.828125 396.390625 705.714844 394.496094 C 705.609375 392.601562 705.238281 391.023438 704.609375 389.75 C 703.941406 388.40625 702.960938 387.34375 701.617188 386.570312 C 700.28125 385.792969 698.566406 385.398438 696.460938 385.398438 C 695.214844 385.398438 694.011719 385.609375 692.859375 386.035156 C 691.707031 386.464844 690.496094 387.027344 689.238281 387.734375 C 688.125 388.371094 687.027344 389.140625 685.941406 390.035156 C 684.84375 390.941406 683.855469 391.746094 682.949219 392.453125 L 672.078125 423.898438 C 672.09375 424.609375 672.324219 425.386719 672.753906 426.234375 C 673.183594 427.082031 673.773438 427.824219 674.515625 428.457031 C 675.421875 429.273438 676.460938 429.894531 677.660156 430.3125 C 678.851562 430.742188 680.195312 430.949219 681.699219 430.949219 C 684.503906 430.949219 687.257812 430.132812 689.933594 428.488281 C 692.601562 426.84375 694.996094 424.621094 697.121094 421.832031 C 699.445312 418.792969 701.3125 415.398438 702.722656 411.648438 C 704.132812 407.898438 705.085938 404.070312 705.550781 400.144531 M 716.578125 399.875 C 716.003906 404.578125 714.605469 409.082031 712.382812 413.375 C 710.164062 417.671875 707.457031 421.367188 704.277344 424.480469 C 701.015625 427.660156 697.460938 430.164062 693.613281 431.984375 C 689.773438 433.800781 685.816406 434.714844 681.757812 434.714844 C 678.699219 434.714844 676.039062 434.457031 673.773438 433.949219 C 671.503906 433.433594 669.609375 432.738281 668.074219 431.851562 C 666.511719 430.9375 665.253906 429.898438 664.28125 428.753906 C 663.320312 427.605469 662.480469 426.320312 661.765625 424.910156 L 682.730469 364.910156 C 682.996094 364.09375 683.234375 363.398438 683.425781 362.8125 C 683.617188 362.230469 683.757812 361.636719 683.824219 361.035156 C 683.980469 359.769531 683.882812 358.785156 683.550781 358.101562 C 683.199219 357.410156 682.664062 356.886719 681.921875 356.53125 C 681.207031 356.214844 680.300781 356.003906 679.167969 355.898438 C 678.050781 355.789062 676.90625 355.664062 675.753906 355.523438 L 676.890625 352.292969 L 696.71875 351.128906 L 697.15625 351.921875 L 684.875 387.097656 L 685.09375 387.097656 C 688.628906 384.273438 691.6875 382.320312 694.261719 381.242188 C 696.824219 380.164062 699.273438 379.625 701.589844 379.625 C 707 379.625 711.042969 381.457031 713.699219 385.113281 C 716.359375 388.769531 717.320312 393.695312 716.578125 399.875 "/>
<path fill-rule="nonzero" fill="rgb(63.899231%, 51.399231%, 28.999329%)" fill-opacity="1" d="M 755.09375 359.601562 C 754.847656 361.617188 753.980469 363.375 752.484375 364.875 C 750.988281 366.375 749.261719 367.125 747.308594 367.125 C 745.5 367.125 744.011719 366.410156 742.867188 364.980469 C 741.726562 363.550781 741.257812 361.917969 741.488281 360.082031 C 741.714844 358.136719 742.574219 356.441406 744.070312 354.992188 C 745.554688 353.546875 747.214844 352.824219 749.023438 352.824219 C 751.054688 352.824219 752.617188 353.503906 753.742188 354.859375 C 754.855469 356.222656 755.304688 357.804688 755.09375 359.601562 M 743.164062 427.351562 L 741.953125 430.742188 C 738.523438 432.046875 735.796875 432.957031 733.789062 433.472656 C 731.769531 433.980469 730.0625 434.238281 728.679688 434.238281 C 725.832031 434.238281 723.78125 433.503906 722.542969 432.035156 C 721.285156 430.570312 720.800781 428.757812 721.058594 426.601562 C 721.160156 425.785156 721.324219 424.941406 721.570312 424.054688 C 721.828125 423.171875 722.191406 422.058594 722.675781 420.714844 L 731.023438 398.179688 C 731.453125 396.941406 731.882812 395.617188 732.320312 394.199219 C 732.757812 392.785156 733.035156 391.585938 733.160156 390.59375 C 733.398438 388.613281 733.226562 387.296875 732.644531 386.644531 C 732.070312 385.992188 730.765625 385.664062 728.746094 385.664062 C 727.964844 385.664062 726.90625 385.792969 725.582031 386.035156 C 724.257812 386.28125 723.238281 386.496094 722.554688 386.667969 L 723.761719 383.28125 C 726.679688 382.042969 729.28125 381.128906 731.558594 380.527344 C 733.824219 379.925781 735.609375 379.628906 736.894531 379.628906 C 739.800781 379.628906 741.828125 380.316406 742.984375 381.695312 C 744.136719 383.074219 744.574219 384.929688 744.296875 387.257812 C 744.222656 387.902344 744.039062 388.765625 743.765625 389.859375 C 743.488281 390.957031 743.144531 392.054688 742.726562 393.148438 L 734.351562 415.683594 C 733.835938 417.0625 733.359375 418.414062 732.941406 419.738281 C 732.511719 421.0625 732.242188 422.15625 732.148438 423 C 731.902344 425.015625 732.1875 426.394531 733.007812 427.140625 C 733.816406 427.878906 735.246094 428.253906 737.265625 428.253906 C 737.933594 428.253906 738.914062 428.164062 740.191406 427.988281 C 741.46875 427.8125 742.460938 427.601562 743.164062 427.351562 "/>
<path fill-rule="nonzero" fill="rgb(63.899231%, 51.399231%, 28.999329%)" fill-opacity="1" d="M 784.976562 351.925781 L 762.402344 415.699219 C 761.917969 417.039062 761.449219 418.382812 761.003906 419.71875 C 760.554688 421.0625 760.277344 422.160156 760.183594 423.003906 C 759.933594 425.019531 760.230469 426.394531 761.050781 427.140625 C 761.859375 427.878906 763.289062 428.253906 765.308594 428.253906 C 766.015625 428.253906 767.082031 428.164062 768.503906 427.988281 C 769.929688 427.8125 771.019531 427.601562 771.75 427.351562 L 770.542969 430.742188 C 767.1875 432.011719 764.625 432.914062 762.832031 433.441406 C 761.042969 433.972656 759.058594 434.238281 756.894531 434.238281 C 754.046875 434.238281 751.96875 433.503906 750.671875 432.039062 C 749.367188 430.570312 748.851562 428.757812 749.109375 426.605469 C 749.214844 425.789062 749.386719 424.945312 749.652344 424.0625 C 749.929688 423.175781 750.28125 422.066406 750.730469 420.722656 L 770.445312 364.910156 C 770.820312 363.8125 771.085938 363.050781 771.21875 362.632812 C 771.363281 362.203125 771.464844 361.671875 771.542969 361.035156 C 771.695312 359.769531 771.597656 358.785156 771.257812 358.101562 C 770.914062 357.410156 770.371094 356.886719 769.617188 356.53125 C 768.914062 356.214844 767.988281 356.003906 766.851562 355.898438 C 765.730469 355.789062 764.578125 355.664062 763.421875 355.523438 L 764.558594 352.292969 L 784.539062 351.128906 Z M 784.976562 351.925781 "/>
<path fill-rule="nonzero" fill="rgb(63.899231%, 51.399231%, 28.999329%)" fill-opacity="1" d="M 812.878906 359.601562 C 812.632812 361.617188 811.765625 363.375 810.269531 364.875 C 808.773438 366.375 807.046875 367.125 805.09375 367.125 C 803.285156 367.125 801.796875 366.410156 800.652344 364.980469 C 799.511719 363.550781 799.042969 361.917969 799.273438 360.082031 C 799.5 358.136719 800.359375 356.441406 801.855469 354.992188 C 803.339844 353.546875 805 352.824219 806.808594 352.824219 C 808.839844 352.824219 810.402344 353.503906 811.527344 354.859375 C 812.640625 356.222656 813.089844 357.804688 812.878906 359.601562 M 800.949219 427.351562 L 799.738281 430.742188 C 796.308594 432.046875 793.582031 432.957031 791.574219 433.472656 C 789.554688 433.980469 787.847656 434.238281 786.464844 434.238281 C 783.617188 434.238281 781.566406 433.503906 780.328125 432.035156 C 779.070312 430.570312 778.582031 428.757812 778.84375 426.601562 C 778.945312 425.785156 779.109375 424.941406 779.355469 424.054688 C 779.613281 423.171875 779.976562 422.058594 780.460938 420.714844 L 788.808594 398.179688 C 789.238281 396.941406 789.667969 395.617188 790.105469 394.199219 C 790.542969 392.785156 790.820312 391.585938 790.945312 390.59375 C 791.183594 388.613281 791.011719 387.296875 790.429688 386.644531 C 789.855469 385.992188 788.550781 385.664062 786.53125 385.664062 C 785.75 385.664062 784.691406 385.792969 783.367188 386.035156 C 782.042969 386.28125 781.023438 386.496094 780.339844 386.667969 L 781.546875 383.28125 C 784.464844 382.042969 787.066406 381.128906 789.34375 380.527344 C 791.609375 379.925781 793.394531 379.628906 794.679688 379.628906 C 797.585938 379.628906 799.613281 380.316406 800.769531 381.695312 C 801.921875 383.074219 802.359375 384.929688 802.082031 387.257812 C 802.007812 387.902344 801.824219 388.765625 801.550781 389.859375 C 801.273438 390.957031 800.929688 392.054688 800.511719 393.148438 L 792.136719 415.683594 C 791.621094 417.0625 791.144531 418.414062 790.726562 419.738281 C 790.296875 421.0625 790.027344 422.15625 789.933594 423 C 789.6875 425.015625 789.972656 426.394531 790.789062 427.140625 C 791.601562 427.878906 793.03125 428.253906 795.050781 428.253906 C 795.71875 428.253906 796.699219 428.164062 797.976562 427.988281 C 799.253906 427.8125 800.242188 427.601562 800.949219 427.351562 "/>
<path fill-rule="nonzero" fill="rgb(63.899231%, 51.399231%, 28.999329%)" fill-opacity="1" d="M 850.214844 392.609375 C 850.359375 391.445312 850.367188 390.335938 850.234375 389.269531 C 850.121094 388.210938 849.71875 387.226562 849.050781 386.300781 C 848.441406 385.421875 847.554688 384.710938 846.363281 384.179688 C 845.183594 383.652344 843.660156 383.386719 841.773438 383.386719 C 839.160156 383.386719 836.542969 384.234375 833.882812 385.929688 C 831.222656 387.632812 828.734375 389.90625 826.441406 392.773438 C 824.265625 395.460938 822.359375 398.714844 820.730469 402.53125 C 819.101562 406.351562 818.042969 410.21875 817.566406 414.144531 C 817.3125 416.304688 817.207031 418.210938 817.253906 419.875 C 817.300781 421.535156 817.605469 423.050781 818.148438 424.433594 C 818.664062 425.777344 819.511719 426.820312 820.703125 427.5625 C 821.894531 428.300781 823.457031 428.671875 825.410156 428.671875 C 827.402344 428.671875 829.546875 428.121094 831.871094 427 C 834.1875 425.890625 836.882812 423.9375 839.953125 421.144531 Z M 838.496094 426.125 L 838.121094 426.125 C 837.265625 426.761719 836.234375 427.566406 835.035156 428.535156 C 833.835938 429.511719 832.453125 430.4375 830.890625 431.320312 C 829.402344 432.207031 827.800781 432.972656 826.085938 433.625 C 824.382812 434.277344 822.550781 434.609375 820.636719 434.609375 C 815.492188 434.609375 811.679688 432.769531 809.183594 429.09375 C 806.695312 425.417969 805.839844 420.398438 806.601562 414.035156 C 807.125 409.652344 808.457031 405.394531 810.582031 401.257812 C 812.71875 397.128906 815.425781 393.410156 818.691406 390.125 C 821.808594 386.976562 825.363281 384.441406 829.363281 382.519531 C 833.367188 380.59375 837.351562 379.625 841.335938 379.625 C 843.859375 379.625 846.230469 379.964844 848.433594 380.632812 C 850.652344 381.304688 852.359375 382.0625 853.570312 382.914062 L 863.671875 380.421875 L 864.214844 381.21875 L 851.96875 415.417969 C 851.558594 416.515625 851.101562 417.847656 850.613281 419.425781 C 850.121094 420.996094 849.835938 422.15625 849.738281 422.898438 C 849.5 424.914062 849.757812 426.277344 850.539062 426.976562 C 851.300781 427.683594 852.703125 428.039062 854.730469 428.039062 C 855.40625 428.039062 856.390625 427.933594 857.65625 427.71875 C 858.933594 427.511719 859.925781 427.28125 860.628906 427.027344 L 859.410156 430.421875 C 856.054688 431.695312 853.558594 432.613281 851.929688 433.175781 C 850.28125 433.742188 848.347656 434.023438 846.097656 434.023438 C 843.535156 434.023438 841.589844 433.28125 840.277344 431.800781 C 838.960938 430.3125 838.359375 428.421875 838.496094 426.125 "/>
<path fill-rule="nonzero" fill="rgb(63.899231%, 51.399231%, 28.999329%)" fill-opacity="1" d="M 916.101562 388.261719 C 915.984375 389.246094 915.710938 390.335938 915.28125 391.519531 C 914.851562 392.699219 914.328125 393.683594 913.699219 394.460938 C 912.945312 395.410156 912.164062 396.144531 911.324219 396.65625 C 910.507812 397.171875 909.371094 397.421875 907.953125 397.421875 C 906.027344 397.421875 904.644531 396.945312 903.808594 395.992188 C 902.96875 395.039062 902.605469 393.976562 902.75 392.816406 C 902.871094 391.722656 903.292969 390.496094 903.988281 389.136719 C 904.683594 387.777344 905.398438 386.425781 906.132812 385.082031 C 905.703125 385.082031 904.988281 385.199219 903.988281 385.425781 C 902.976562 385.660156 901.75 386.105469 900.28125 386.777344 C 898.8125 387.449219 897.128906 388.460938 895.210938 389.804688 C 893.296875 391.148438 891.210938 392.933594 888.949219 395.164062 L 875.792969 433.121094 L 865.84375 433.121094 L 877.753906 398.761719 C 878.03125 397.914062 878.441406 396.640625 878.984375 394.945312 C 879.527344 393.242188 879.851562 391.992188 879.945312 391.179688 C 880.183594 389.203125 880.003906 387.878906 879.402344 387.203125 C 878.8125 386.53125 877.507812 386.191406 875.476562 386.191406 C 874.695312 386.191406 873.6875 386.324219 872.445312 386.589844 C 871.207031 386.855469 870.234375 387.078125 869.539062 387.25 L 870.742188 383.867188 C 873.667969 382.621094 876.238281 381.710938 878.441406 381.109375 C 880.652344 380.511719 882.519531 380.207031 884.042969 380.207031 C 886.894531 380.207031 888.828125 380.980469 889.839844 382.519531 C 890.867188 384.054688 891.199219 386.359375 890.828125 389.433594 L 891.144531 389.433594 C 895.820312 385.796875 899.339844 383.253906 901.691406 381.804688 C 904.066406 380.351562 906.429688 379.628906 908.820312 379.628906 C 909.953125 379.628906 911.039062 379.769531 912.078125 380.046875 C 913.109375 380.332031 913.957031 380.808594 914.621094 381.480469 C 915.308594 382.222656 915.785156 383.082031 916.042969 384.046875 C 916.300781 385.019531 916.320312 386.425781 916.101562 388.261719 "/>
<path fill-rule="nonzero" fill="rgb(63.899231%, 51.399231%, 28.999329%)" fill-opacity="1" d="M 952.242188 389.355469 C 952.40625 387.984375 952.347656 386.902344 952.054688 386.105469 C 951.75 385.316406 951.328125 384.726562 950.765625 384.339844 C 950.1875 383.917969 949.539062 383.652344 948.84375 383.542969 C 948.136719 383.4375 947.414062 383.386719 946.667969 383.386719 C 942.398438 383.386719 938.179688 385.714844 934.015625 390.367188 C 929.851562 395.015625 926.867188 400.808594 925.066406 407.757812 C 927.601562 407.398438 930.46875 406.898438 933.679688 406.246094 C 936.882812 405.59375 939.582031 404.742188 941.769531 403.683594 C 944.917969 402.167969 947.335938 400.21875 949.0625 397.84375 C 950.796875 395.464844 951.851562 392.632812 952.242188 389.355469 M 961.90625 390.660156 C 961.449219 394.410156 959.886719 397.632812 957.199219 400.320312 C 954.511719 403.007812 950.816406 405.144531 946.105469 406.738281 C 942.65625 407.9375 939.199219 408.914062 935.71875 409.65625 C 932.253906 410.402344 928.449219 411.019531 924.296875 411.515625 C 923.617188 417.089844 924.160156 421.355469 925.878906 424.308594 C 927.601562 427.253906 930.480469 428.730469 934.5 428.730469 C 938.054688 428.730469 941.304688 427.84375 944.230469 426.082031 C 947.164062 424.320312 950.15625 421.679688 953.214844 418.1875 L 955.980469 420.410156 C 952.617188 424.722656 948.652344 428.164062 944.066406 430.742188 C 939.492188 433.320312 934.910156 434.609375 930.316406 434.609375 C 924.027344 434.609375 919.425781 432.859375 916.527344 429.359375 C 913.621094 425.855469 912.546875 420.898438 913.316406 414.460938 C 913.859375 410.007812 915.070312 405.761719 916.957031 401.710938 C 918.855469 397.664062 921.351562 393.957031 924.464844 390.601562 C 927.488281 387.3125 931.03125 384.664062 935.101562 382.648438 C 939.160156 380.632812 943.515625 379.625 948.136719 379.625 C 953.253906 379.625 956.933594 380.660156 959.152344 382.726562 C 961.382812 384.796875 962.289062 387.441406 961.90625 390.660156 "/>
<path fill-rule="nonzero" fill="rgb(100%, 100%, 100%)" fill-opacity="1" d="M 332.101562 386.03125 C 323.808594 413.742188 339.515625 442.917969 367.132812 451.214844 C 386.257812 456.972656 406.164062 451.214844 419.335938 438.039062 L 433.875 438.039062 C 418.460938 459.507812 390.648438 469.851562 364.007812 461.851562 C 355.035156 459.214844 347.128906 454.628906 340.496094 448.871094 L 317.171875 471.023438 L 309.558594 463.019531 L 332.785156 440.871094 C 320.199219 425.160156 315.21875 403.695312 321.464844 382.910156 C 331.613281 349.34375 366.9375 330.3125 400.503906 340.363281 C 418.945312 345.925781 432.902344 359.199219 440.21875 375.492188 C 439.632812 375.492188 439.242188 375.296875 438.65625 375.296875 C 436.609375 375.296875 434.363281 375.6875 431.730469 376.371094 C 430.753906 376.664062 429.777344 377.054688 428.703125 377.347656 C 422.460938 365.148438 411.433594 355.292969 397.285156 351 C 369.671875 342.707031 340.394531 358.417969 332.101562 386.03125 "/>
<path fill-rule="nonzero" fill="rgb(100%, 100%, 100%)" fill-opacity="1" d="M 377.851562 325.839844 L 336.726562 325.839844 L 336.726562 321.761719 C 337.667969 321.695312 339.054688 321.589844 340.882812 321.449219 C 342.710938 321.3125 343.972656 321.105469 344.671875 320.824219 C 345.960938 320.300781 346.835938 319.613281 347.308594 318.761719 C 347.777344 317.90625 348.015625 316.816406 348.015625 315.492188 L 348.015625 262.929688 C 348.015625 261.742188 347.785156 260.699219 347.335938 259.792969 C 346.882812 258.890625 345.992188 258.15625 344.671875 257.597656 C 343.835938 257.25 342.597656 256.894531 340.960938 256.527344 C 339.320312 256.160156 337.910156 255.910156 336.726562 255.769531 L 336.726562 251.691406 L 377.851562 251.691406 L 377.851562 255.769531 C 376.804688 255.871094 375.496094 256.023438 373.929688 256.214844 C 372.363281 256.40625 371.039062 256.675781 369.960938 257.023438 C 368.601562 257.476562 367.695312 258.183594 367.242188 259.140625 C 366.792969 260.097656 366.566406 261.1875 366.566406 262.40625 L 366.566406 314.917969 C 366.566406 316.171875 366.800781 317.242188 367.269531 318.132812 C 367.742188 319.023438 368.632812 319.742188 369.960938 320.300781 C 370.691406 320.613281 371.902344 320.917969 373.59375 321.214844 C 375.28125 321.511719 376.703125 321.695312 377.851562 321.761719 Z M 377.851562 325.839844 "/>
<path fill-rule="nonzero" fill="rgb(100%, 100%, 100%)" fill-opacity="1" d="M 451.101562 325.839844 L 419.695312 325.839844 L 419.695312 322.023438 C 420.359375 321.957031 421.15625 321.867188 422.101562 321.761719 C 423.039062 321.660156 423.757812 321.484375 424.242188 321.242188 C 424.972656 320.859375 425.496094 320.300781 425.808594 319.570312 C 426.125 318.835938 426.28125 317.761719 426.28125 316.328125 L 426.28125 291.875 C 426.28125 288.320312 425.625 285.648438 424.316406 283.855469 C 423.003906 282.0625 421.078125 281.164062 418.523438 281.164062 C 417.128906 281.164062 415.828125 281.375 414.625 281.792969 C 413.417969 282.210938 412.238281 282.820312 411.085938 283.621094 C 410.074219 284.316406 409.257812 285.03125 408.648438 285.761719 C 408.035156 286.492188 407.523438 287.140625 407.105469 287.695312 L 407.105469 315.753906 C 407.105469 316.972656 407.277344 317.992188 407.628906 318.8125 C 407.976562 319.628906 408.550781 320.25 409.351562 320.667969 C 409.90625 320.980469 410.605469 321.261719 411.441406 321.503906 C 412.277344 321.746094 413.09375 321.921875 413.898438 322.023438 L 413.898438 325.839844 L 382.128906 325.839844 L 382.128906 322.023438 C 382.996094 321.957031 383.878906 321.859375 384.765625 321.738281 C 385.65625 321.617188 386.414062 321.449219 387.039062 321.242188 C 388.15625 320.859375 388.921875 320.269531 389.339844 319.464844 C 389.757812 318.664062 389.964844 317.621094 389.964844 316.328125 L 389.964844 285.917969 C 389.964844 284.839844 389.683594 283.777344 389.128906 282.730469 C 388.574219 281.6875 387.839844 280.832031 386.933594 280.171875 C 386.308594 279.753906 385.511719 279.40625 384.554688 279.125 C 383.597656 278.847656 382.546875 278.65625 381.398438 278.550781 L 381.398438 274.738281 L 406.320312 273.378906 L 407.105469 274.160156 L 407.105469 281.738281 L 407.316406 281.738281 C 408.289062 280.867188 409.472656 279.824219 410.867188 278.605469 C 412.257812 277.386719 413.550781 276.390625 414.734375 275.625 C 416.019531 274.789062 417.714844 274.074219 419.804688 273.484375 C 421.894531 272.890625 424.121094 272.597656 426.492188 272.597656 C 432.167969 272.597656 436.425781 274.207031 439.265625 277.425781 C 442.105469 280.648438 443.523438 284.925781 443.523438 290.253906 L 443.523438 315.859375 C 443.523438 317.148438 443.714844 318.179688 444.101562 318.941406 C 444.480469 319.710938 445.195312 320.320312 446.242188 320.769531 C 446.800781 321.015625 447.484375 321.261719 448.304688 321.503906 C 449.125 321.746094 450.054688 321.921875 451.101562 322.023438 Z M 451.101562 325.839844 "/>
<path fill-rule="nonzero" fill="rgb(100%, 100%, 100%)" fill-opacity="1" d="M 511.34375 277.820312 C 509.777344 278.0625 508.253906 278.65625 506.773438 279.597656 C 505.292969 280.539062 504.0625 282 503.089844 283.984375 C 500.648438 289.074219 498.253906 294.199219 495.90625 299.375 C 493.550781 304.546875 491.246094 309.554688 488.980469 314.398438 C 488.285156 315.859375 487.492188 317.742188 486.605469 320.039062 C 485.714844 322.339844 484.976562 324.429688 484.382812 326.3125 L 474.769531 326.3125 C 470.765625 317.007812 467.339844 309.292969 464.5 303.160156 C 461.660156 297.03125 458.65625 290.449219 455.488281 283.410156 C 454.757812 281.773438 453.613281 280.484375 452.066406 279.542969 C 450.515625 278.605469 448.9375 278.03125 447.335938 277.820312 L 447.335938 274.007812 L 479.523438 274.007812 L 479.523438 277.820312 C 478.339844 277.855469 476.949219 278.117188 475.347656 278.605469 C 473.742188 279.089844 472.941406 279.71875 472.941406 280.484375 C 472.941406 280.695312 473.011719 281.007812 473.152344 281.425781 C 473.292969 281.84375 473.46875 282.3125 473.671875 282.835938 C 474.792969 285.484375 476.476562 289.296875 478.730469 294.273438 C 480.984375 299.253906 483.367188 304.492188 485.882812 309.992188 C 487.621094 306.199219 489.28125 302.484375 490.863281 298.847656 C 492.449219 295.207031 494.402344 290.566406 496.734375 284.925781 C 497.046875 284.089844 497.230469 283.410156 497.28125 282.886719 C 497.332031 282.367188 497.359375 282.015625 497.359375 281.84375 C 497.359375 281.214844 497.054688 280.667969 496.445312 280.195312 C 495.832031 279.726562 495.105469 279.320312 494.269531 278.96875 C 493.398438 278.621094 492.558594 278.359375 491.753906 278.1875 C 490.949219 278.011719 490.289062 277.890625 489.765625 277.820312 L 489.765625 274.007812 L 511.34375 274.007812 Z M 511.34375 277.820312 "/>
<path fill-rule="nonzero" fill="rgb(100%, 100%, 100%)" fill-opacity="1" d="M 544.585938 293.496094 C 544.585938 291.40625 544.480469 289.261719 544.273438 287.070312 C 544.0625 284.875 543.695312 283.082031 543.179688 281.6875 C 542.585938 280.050781 541.773438 278.8125 540.746094 277.976562 C 539.71875 277.140625 538.421875 276.722656 536.855469 276.722656 C 534.171875 276.722656 532.027344 278.082031 530.425781 280.796875 C 528.824219 283.515625 527.953125 287.820312 527.8125 293.707031 Z M 564.550781 313.351562 C 563.328125 315.335938 561.855469 317.210938 560.132812 318.96875 C 558.410156 320.726562 556.449219 322.234375 554.253906 323.488281 C 551.917969 324.8125 549.558594 325.8125 547.175781 326.492188 C 544.785156 327.171875 542.046875 327.511719 538.945312 327.511719 C 533.789062 327.511719 529.339844 326.78125 525.59375 325.316406 C 521.847656 323.851562 518.753906 321.886719 516.320312 319.414062 C 513.878906 316.9375 512.058594 314.019531 510.855469 310.660156 C 509.65625 307.300781 509.054688 303.652344 509.054688 299.714844 C 509.054688 296.160156 509.707031 292.753906 511.015625 289.5 C 512.320312 286.242188 514.175781 283.34375 516.578125 280.796875 C 518.949219 278.328125 521.9375 276.324219 525.539062 274.789062 C 529.148438 273.257812 533.179688 272.492188 537.636719 272.492188 C 542.511719 272.492188 546.523438 273.082031 549.65625 274.265625 C 552.792969 275.449219 555.386719 277.089844 557.4375 279.179688 C 559.429688 281.164062 560.871094 283.507812 561.777344 286.207031 C 562.683594 288.90625 563.136719 291.738281 563.136719 294.699219 L 563.136719 298.09375 L 527.8125 298.09375 C 527.8125 305.234375 529.1875 310.667969 531.941406 314.398438 C 534.691406 318.125 539.066406 319.988281 545.058594 319.988281 C 548.332031 319.988281 551.273438 319.089844 553.886719 317.296875 C 556.5 315.503906 558.730469 313.230469 560.578125 310.476562 Z M 564.550781 313.351562 "/>
<path fill-rule="nonzero" fill="rgb(100%, 100%, 100%)" fill-opacity="1" d="M 592.417969 327.617188 C 589.039062 327.617188 585.738281 327.121094 582.515625 326.128906 C 579.292969 325.132812 576.792969 324.082031 575.019531 322.964844 L 573.449219 326.519531 L 569.375 326.519531 L 568.699219 307.03125 L 572.511719 307.03125 C 573.03125 308.59375 573.90625 310.367188 575.121094 312.332031 C 576.34375 314.300781 577.734375 316.070312 579.300781 317.636719 C 580.941406 319.203125 582.8125 320.527344 584.917969 321.605469 C 587.027344 322.6875 589.28125 323.226562 591.6875 323.226562 C 594.859375 323.226562 597.214844 322.609375 598.765625 321.371094 C 600.316406 320.136719 601.089844 318.226562 601.089844 315.652344 C 601.089844 314.257812 600.742188 313.109375 600.046875 312.203125 C 599.351562 311.296875 598.390625 310.511719 597.175781 309.847656 C 595.816406 309.152344 594.324219 308.5625 592.707031 308.074219 C 591.085938 307.585938 589.089844 306.996094 586.722656 306.296875 C 584.355469 305.601562 582.324219 304.894531 580.636719 304.183594 C 578.945312 303.46875 577.195312 302.34375 575.386719 300.8125 C 573.816406 299.453125 572.558594 297.8125 571.625 295.898438 C 570.679688 293.984375 570.210938 291.703125 570.210938 289.054688 C 570.210938 284.140625 572.277344 280.171875 576.40625 277.140625 C 580.53125 274.109375 585.9375 272.59375 592.625 272.59375 C 595.796875 272.59375 598.714844 272.917969 601.378906 273.5625 C 604.046875 274.207031 606.28125 274.910156 608.09375 275.679688 L 609.191406 272.59375 L 613.160156 272.59375 L 613.996094 290.414062 L 610.339844 290.414062 C 609.121094 286.789062 607.03125 283.664062 604.070312 281.035156 C 601.109375 278.402344 597.921875 277.089844 594.507812 277.089844 C 591.824219 277.089844 589.71875 277.644531 588.183594 278.761719 C 586.652344 279.875 585.886719 281.425781 585.886719 283.410156 C 585.886719 286.058594 587.007812 287.976562 589.253906 289.160156 C 591.492188 290.34375 594.632812 291.457031 598.667969 292.503906 C 604.890625 294.105469 609.449219 296.289062 612.332031 299.058594 C 615.21875 301.832031 616.664062 305.355469 616.664062 309.640625 C 616.664062 315.355469 614.421875 319.777344 609.949219 322.914062 C 605.472656 326.046875 599.628906 327.617188 592.417969 327.617188 "/>
<path fill-rule="nonzero" fill="rgb(100%, 100%, 100%)" fill-opacity="1" d="M 659.828125 323.433594 C 657.597656 324.410156 655.210938 325.292969 652.667969 326.074219 C 650.125 326.859375 647.023438 327.25 643.367188 327.25 C 637.933594 327.25 633.902344 325.925781 631.273438 323.285156 C 628.640625 320.640625 627.328125 316.863281 627.328125 311.957031 L 627.328125 279.910156 L 617.921875 279.910156 L 617.921875 274.214844 L 627.535156 274.214844 L 627.535156 258.382812 L 644.46875 258.382812 L 644.46875 274.214844 L 659.144531 274.214844 L 659.144531 279.910156 L 644.570312 279.910156 L 644.570312 308.507812 C 644.570312 312.578125 645.136719 315.464844 646.273438 317.167969 C 647.410156 318.875 649.449219 319.726562 652.382812 319.726562 C 653.328125 319.726562 654.636719 319.65625 656.3125 319.515625 C 657.996094 319.378906 659.164062 319.222656 659.828125 319.046875 Z M 659.828125 323.433594 "/>
<path fill-rule="nonzero" fill="rgb(100%, 100%, 100%)" fill-opacity="1" d="M 688.503906 254.566406 C 688.503906 257.214844 687.484375 259.472656 685.449219 261.332031 C 683.410156 263.199219 680.996094 264.128906 678.214844 264.128906 C 675.386719 264.128906 672.960938 263.199219 670.925781 261.332031 C 668.882812 259.472656 667.863281 257.214844 667.863281 254.566406 C 667.863281 251.921875 668.882812 249.65625 670.925781 247.773438 C 672.960938 245.894531 675.386719 244.953125 678.214844 244.953125 C 681.03125 244.953125 683.453125 245.894531 685.472656 247.773438 C 687.492188 249.65625 688.503906 251.921875 688.503906 254.566406 M 696.136719 325.839844 L 663.113281 325.839844 L 663.113281 322.023438 C 664.015625 321.957031 664.90625 321.867188 665.773438 321.761719 C 666.644531 321.660156 667.398438 321.484375 668.023438 321.242188 C 669.136719 320.824219 669.921875 320.222656 670.371094 319.4375 C 670.828125 318.652344 671.054688 317.621094 671.054688 316.328125 L 671.054688 285.917969 C 671.054688 284.699219 670.773438 283.628906 670.21875 282.707031 C 669.65625 281.785156 668.964844 281.042969 668.128906 280.484375 C 667.5 280.066406 666.550781 279.667969 665.277344 279.285156 C 664.007812 278.898438 662.847656 278.65625 661.804688 278.550781 L 661.804688 274.734375 L 687.410156 273.378906 L 688.191406 274.164062 L 688.191406 315.652344 C 688.191406 316.871094 688.453125 317.90625 688.976562 318.761719 C 689.5 319.613281 690.246094 320.25 691.222656 320.667969 C 691.917969 320.980469 692.683594 321.261719 693.519531 321.503906 C 694.355469 321.746094 695.230469 321.921875 696.136719 322.023438 Z M 696.136719 325.839844 "/>
<path fill-rule="nonzero" fill="rgb(100%, 100%, 100%)" fill-opacity="1" d="M 731.175781 289.785156 C 731.175781 285.710938 730.53125 282.488281 729.234375 280.121094 C 727.945312 277.75 725.953125 276.566406 723.261719 276.566406 C 721.898438 276.566406 720.707031 276.886719 719.695312 277.53125 C 718.679688 278.179688 717.859375 279.109375 717.230469 280.328125 C 716.636719 281.511719 716.234375 282.898438 716.023438 284.484375 C 715.8125 286.066406 715.707031 287.695312 715.707031 289.367188 C 715.707031 293.164062 716.375 296.28125 717.699219 298.722656 C 719.027344 301.160156 720.917969 302.378906 723.367188 302.378906 C 725.882812 302.378906 727.8125 301.28125 729.15625 299.085938 C 730.5 296.890625 731.175781 293.792969 731.175781 289.785156 M 739.90625 333.730469 C 739.90625 332.542969 739.570312 331.367188 738.910156 330.203125 C 738.253906 329.035156 736.777344 328.085938 734.480469 327.355469 C 733.230469 327.148438 731.167969 327.007812 728.296875 326.9375 C 725.429688 326.867188 721.492188 326.832031 716.488281 326.832031 C 715.269531 327.878906 714.25 329.113281 713.4375 330.542969 C 712.617188 331.96875 712.210938 333.695312 712.210938 335.714844 C 712.210938 336.585938 712.453125 337.542969 712.941406 338.589844 C 713.429688 339.632812 714.191406 340.609375 715.234375 341.515625 C 716.449219 342.527344 717.808594 343.316406 719.300781 343.894531 C 720.796875 344.46875 723.058594 344.757812 726.082031 344.757812 C 730.566406 344.757812 733.992188 343.882812 736.359375 342.140625 C 738.71875 340.398438 739.90625 337.597656 739.90625 333.730469 M 755.683594 279.859375 L 744.1875 279.859375 C 745.546875 281.382812 746.5625 282.996094 747.246094 284.691406 C 747.925781 286.390625 748.265625 288.15625 748.265625 289.992188 C 748.265625 292.398438 747.621094 294.65625 746.328125 296.761719 C 745.042969 298.871094 743.351562 300.585938 741.261719 301.90625 C 739.136719 303.265625 736.644531 304.328125 733.789062 305.09375 C 730.929688 305.863281 727.832031 306.246094 724.488281 306.246094 L 715.972656 306.246094 C 715.554688 306.558594 715.09375 307.0625 714.589844 307.746094 C 714.082031 308.429688 713.828125 309.085938 713.828125 309.71875 C 713.828125 311.261719 714.4375 312.332031 715.660156 312.925781 C 716.878906 313.523438 719.089844 313.855469 722.296875 313.925781 C 725.464844 313.996094 728.667969 314.128906 731.910156 314.316406 C 735.148438 314.511719 737.464844 314.625 738.859375 314.65625 C 740.878906 314.761719 742.878906 315.171875 744.867188 315.886719 C 746.851562 316.601562 748.578125 317.53125 750.039062 318.679688 C 751.640625 319.898438 752.964844 321.460938 754.011719 323.359375 C 755.054688 325.257812 755.578125 327.441406 755.578125 329.914062 C 755.578125 332.5625 754.941406 335.050781 753.671875 337.386719 C 752.398438 339.722656 750.457031 341.742188 747.847656 343.449219 C 745.089844 345.226562 741.792969 346.601562 737.945312 347.578125 C 734.09375 348.550781 729.328125 349.039062 723.652344 349.039062 C 714.492188 349.039062 707.523438 347.925781 702.75 345.695312 C 697.976562 343.464844 695.59375 340.121094 695.59375 335.664062 C 695.59375 332.910156 696.882812 330.648438 699.453125 328.871094 C 702.03125 327.09375 706.03125 326.117188 711.464844 325.945312 L 711.464844 325.316406 C 708.265625 324.234375 705.765625 322.792969 703.976562 320.996094 C 702.1875 319.199219 701.289062 317.109375 701.289062 314.734375 C 701.289062 313.269531 701.644531 312.027344 702.359375 311.015625 C 703.074219 310.003906 703.988281 309.113281 705.105469 308.34375 C 706.078125 307.679688 707.261719 307.113281 708.65625 306.640625 C 710.046875 306.171875 711.214844 305.796875 712.15625 305.515625 L 712.15625 304.9375 C 707.453125 303.199219 703.996094 301.070312 701.785156 298.5625 C 699.570312 296.054688 698.46875 292.992188 698.46875 289.367188 C 698.46875 284.246094 700.824219 280.152344 705.546875 277.089844 C 710.265625 274.023438 716.246094 272.488281 723.496094 272.488281 C 725.863281 272.488281 728.15625 272.691406 730.367188 273.089844 C 732.578125 273.492188 734.257812 273.851562 735.40625 274.160156 L 755.683594 274.160156 Z M 755.683594 279.859375 "/>
<path fill-rule="nonzero" fill="rgb(100%, 100%, 100%)" fill-opacity="1" d="M 790.109375 297.519531 C 788.15625 298.183594 786.210938 298.941406 784.292969 299.796875 C 782.367188 300.652344 780.792969 301.550781 779.570312 302.496094 C 778.277344 303.472656 777.261719 304.722656 776.527344 306.238281 C 775.792969 307.757812 775.429688 309.550781 775.429688 311.609375 C 775.429688 314.332031 776.050781 316.304688 777.292969 317.527344 C 778.53125 318.75 780.058594 319.359375 781.878906 319.359375 C 783.800781 319.359375 785.382812 318.96875 786.625 318.179688 C 787.867188 317.394531 788.957031 316.429688 789.898438 315.277344 Z M 816.027344 324.742188 C 814.5 325.40625 812.691406 326.015625 810.605469 326.574219 C 808.519531 327.128906 806.3125 327.410156 803.984375 327.410156 C 799.707031 327.410156 796.558594 326.769531 794.542969 325.5 C 792.527344 324.226562 791.152344 322.410156 790.421875 320.039062 L 790.109375 320.039062 C 788.925781 321.226562 787.78125 322.234375 786.683594 323.070312 C 785.582031 323.90625 784.40625 324.621094 783.152344 325.210938 C 781.511719 325.976562 779.933594 326.554688 778.414062 326.9375 C 776.898438 327.320312 774.777344 327.511719 772.054688 327.511719 C 768.007812 327.511719 764.550781 326.316406 761.695312 323.929688 C 758.832031 321.539062 757.398438 318.371094 757.398438 314.429688 C 757.398438 312.160156 757.714844 310.234375 758.34375 308.644531 C 758.972656 307.058594 759.859375 305.65625 761.011719 304.433594 C 762.058594 303.316406 763.273438 302.390625 764.648438 301.660156 C 766.027344 300.925781 767.539062 300.246094 769.179688 299.621094 C 772.316406 298.46875 776.085938 297.273438 780.480469 296.035156 C 784.875 294.796875 788.085938 293.6875 790.109375 292.710938 L 790.109375 287.695312 C 790.109375 286.824219 790.042969 285.675781 789.898438 284.246094 C 789.761719 282.816406 789.464844 281.617188 789.015625 280.640625 C 788.523438 279.527344 787.757812 278.585938 786.714844 277.820312 C 785.667969 277.054688 784.292969 276.671875 782.582031 276.671875 C 781.054688 276.671875 779.769531 276.886719 778.742188 277.324219 C 777.714844 277.761719 776.886719 278.203125 776.261719 278.65625 C 776.363281 279.351562 776.660156 280.417969 777.148438 281.84375 C 777.640625 283.269531 777.882812 284.648438 777.882812 285.972656 C 777.882812 286.5625 777.726562 287.304688 777.410156 288.191406 C 777.097656 289.082031 776.644531 289.785156 776.050781 290.308594 C 775.246094 291.003906 774.34375 291.542969 773.351562 291.929688 C 772.355469 292.3125 770.824219 292.503906 768.765625 292.503906 C 765.832031 292.503906 763.613281 291.796875 762.113281 290.386719 C 760.605469 288.976562 759.855469 287.140625 759.855469 284.875 C 759.855469 282.925781 760.632812 281.171875 762.179688 279.621094 C 763.730469 278.074219 765.625 276.792969 767.851562 275.78125 C 770.046875 274.734375 772.570312 273.925781 775.429688 273.351562 C 778.285156 272.777344 780.929688 272.492188 783.371094 272.492188 C 786.75 272.492188 789.851562 272.691406 792.671875 273.089844 C 795.492188 273.492188 798.035156 274.316406 800.300781 275.574219 C 802.460938 276.792969 804.171875 278.558594 805.449219 280.878906 C 806.71875 283.195312 807.355469 286.214844 807.355469 289.941406 C 807.355469 293.878906 807.273438 298.546875 807.121094 303.945312 C 806.960938 309.347656 806.882812 312.898438 806.882812 314.605469 C 806.882812 316.171875 807.121094 317.410156 807.589844 318.316406 C 808.0625 319.222656 808.785156 319.898438 809.757812 320.351562 C 810.351562 320.632812 811.28125 320.796875 812.554688 320.851562 C 813.824219 320.902344 814.984375 320.925781 816.027344 320.925781 Z M 816.027344 324.742188 "/>
<path fill-rule="nonzero" fill="rgb(100%, 100%, 100%)" fill-opacity="1" d="M 854.433594 323.433594 C 852.199219 324.410156 849.816406 325.292969 847.273438 326.074219 C 844.730469 326.859375 841.628906 327.25 837.972656 327.25 C 832.539062 327.25 828.507812 325.925781 825.878906 323.285156 C 823.242188 320.640625 821.933594 316.863281 821.933594 311.957031 L 821.933594 279.910156 L 812.527344 279.910156 L 812.527344 274.214844 L 822.140625 274.214844 L 822.140625 258.382812 L 839.070312 258.382812 L 839.070312 274.214844 L 853.75 274.214844 L 853.75 279.910156 L 839.171875 279.910156 L 839.171875 308.507812 C 839.171875 312.578125 839.742188 315.464844 840.878906 317.167969 C 842.011719 318.875 844.050781 319.726562 846.984375 319.726562 C 847.929688 319.726562 849.242188 319.65625 850.917969 319.515625 C 852.597656 319.378906 853.765625 319.222656 854.433594 319.046875 Z M 854.433594 323.433594 "/>
<path fill-rule="nonzero" fill="rgb(100%, 100%, 100%)" fill-opacity="1" d="M 894.082031 316.382812 C 894.851562 314.433594 895.417969 312.0625 895.78125 309.277344 C 896.148438 306.488281 896.332031 303.25 896.332031 299.558594 C 896.332031 297.117188 896.15625 294.332031 895.808594 291.199219 C 895.460938 288.0625 894.933594 285.589844 894.242188 283.777344 C 893.40625 281.582031 892.246094 279.859375 890.765625 278.605469 C 889.285156 277.351562 887.410156 276.722656 885.148438 276.722656 C 882.675781 276.722656 880.699219 277.402344 879.21875 278.761719 C 877.734375 280.121094 876.59375 281.878906 875.796875 284.039062 C 875.066406 286.023438 874.558594 288.347656 874.28125 291.011719 C 874.003906 293.679688 873.863281 296.457031 873.863281 299.347656 C 873.863281 303.144531 873.984375 306.289062 874.230469 308.78125 C 874.472656 311.269531 875.066406 313.769531 876.003906 316.277344 C 876.804688 318.4375 877.957031 320.144531 879.453125 321.398438 C 880.949219 322.652344 882.847656 323.277344 885.148438 323.277344 C 887.242188 323.277344 889.035156 322.695312 890.53125 321.53125 C 892.027344 320.363281 893.214844 318.648438 894.082031 316.382812 M 907.460938 280.171875 C 910.039062 282.574219 912.003906 285.449219 913.363281 288.792969 C 914.722656 292.136719 915.402344 295.761719 915.402344 299.660156 C 915.402344 303.527344 914.730469 307.175781 913.394531 310.609375 C 912.050781 314.039062 910.089844 316.976562 907.511719 319.414062 C 904.761719 322.023438 901.476562 324.03125 897.664062 325.421875 C 893.847656 326.8125 889.484375 327.511719 884.574219 327.511719 C 880.324219 327.511719 876.414062 326.902344 872.839844 325.683594 C 869.273438 324.464844 866.113281 322.636719 863.359375 320.195312 C 860.710938 317.863281 858.621094 314.980469 857.089844 311.546875 C 855.558594 308.117188 854.789062 304.277344 854.789062 300.027344 C 854.789062 295.847656 855.460938 292.128906 856.804688 288.871094 C 858.140625 285.613281 860.15625 282.714844 862.835938 280.171875 C 865.414062 277.734375 868.59375 275.84375 872.375 274.5 C 876.152344 273.160156 880.378906 272.488281 885.046875 272.488281 C 889.917969 272.488281 894.214844 273.160156 897.925781 274.5 C 901.636719 275.84375 904.8125 277.734375 907.460938 280.171875 "/>
<path fill-rule="nonzero" fill="rgb(100%, 100%, 100%)" fill-opacity="1" d="M 970.203125 283.566406 C 970.203125 286.214844 969.386719 288.542969 967.746094 290.542969 C 966.113281 292.546875 963.953125 293.546875 961.269531 293.546875 C 958.726562 293.546875 956.574219 292.90625 954.816406 291.625 C 953.054688 290.339844 952.175781 288.449219 952.175781 285.953125 C 952.175781 284.738281 952.265625 283.792969 952.4375 283.113281 C 952.613281 282.441406 952.765625 281.804688 952.910156 281.214844 C 951.304688 281.285156 949.617188 281.839844 947.839844 282.875 C 946.0625 283.910156 944.496094 285.289062 943.136719 287.015625 L 943.136719 315.703125 C 943.136719 316.921875 943.328125 317.929688 943.714844 318.734375 C 944.09375 319.535156 944.742188 320.164062 945.644531 320.613281 C 946.414062 321 947.660156 321.320312 949.382812 321.582031 C 951.109375 321.84375 952.347656 321.992188 953.117188 322.023438 L 953.117188 325.839844 L 918.160156 325.839844 L 918.160156 322.023438 C 919.03125 321.957031 919.910156 321.859375 920.800781 321.738281 C 921.6875 321.617188 922.449219 321.449219 923.074219 321.242188 C 924.1875 320.859375 924.957031 320.265625 925.375 319.464844 C 925.792969 318.664062 926 317.621094 926 316.328125 L 926 285.917969 C 926 284.664062 925.703125 283.542969 925.109375 282.546875 C 924.515625 281.554688 923.800781 280.761719 922.964844 280.171875 C 922.339844 279.753906 921.546875 279.40625 920.589844 279.125 C 919.628906 278.847656 918.578125 278.65625 917.429688 278.550781 L 917.429688 274.738281 L 942.351562 273.378906 L 943.136719 274.164062 L 943.136719 281.738281 L 943.347656 281.738281 C 945.75 278.953125 948.300781 276.765625 951.003906 275.179688 C 953.703125 273.597656 956.511719 272.804688 959.441406 272.804688 C 962.679688 272.804688 965.285156 273.804688 967.253906 275.808594 C 969.21875 277.8125 970.203125 280.398438 970.203125 283.566406 "/>
<path fill-rule="nonzero" fill="rgb(100%, 100%, 100%)" fill-opacity="1" d="M 1007.644531 293.496094 C 1007.644531 291.40625 1007.539062 289.261719 1007.332031 287.070312 C 1007.121094 284.875 1006.757812 283.082031 1006.238281 281.6875 C 1005.644531 280.050781 1004.832031 278.8125 1003.804688 277.976562 C 1002.78125 277.140625 1001.480469 276.722656 999.914062 276.722656 C 997.230469 276.722656 995.089844 278.082031 993.484375 280.796875 C 991.882812 283.515625 991.011719 287.820312 990.871094 293.707031 Z M 1027.609375 313.351562 C 1026.386719 315.335938 1024.914062 317.210938 1023.191406 318.96875 C 1021.46875 320.726562 1019.507812 322.234375 1017.3125 323.488281 C 1014.976562 324.8125 1012.617188 325.8125 1010.234375 326.492188 C 1007.84375 327.171875 1005.105469 327.511719 1002.003906 327.511719 C 996.847656 327.511719 992.398438 326.78125 988.652344 325.316406 C 984.90625 323.851562 981.8125 321.886719 979.378906 319.414062 C 976.9375 316.9375 975.117188 314.019531 973.917969 310.660156 C 972.714844 307.300781 972.113281 303.652344 972.113281 299.714844 C 972.113281 296.160156 972.765625 292.753906 974.074219 289.5 C 975.382812 286.242188 977.234375 283.34375 979.636719 280.796875 C 982.007812 278.328125 984.996094 276.324219 988.597656 274.789062 C 992.207031 273.257812 996.238281 272.492188 1000.699219 272.492188 C 1005.570312 272.492188 1009.582031 273.082031 1012.714844 274.265625 C 1015.851562 275.449219 1018.445312 277.089844 1020.5 279.179688 C 1022.488281 281.164062 1023.929688 283.507812 1024.835938 286.207031 C 1025.742188 288.90625 1026.195312 291.738281 1026.195312 294.699219 L 1026.195312 298.09375 L 990.871094 298.09375 C 990.871094 305.234375 992.246094 310.667969 995 314.398438 C 997.75 318.125 1002.125 319.988281 1008.117188 319.988281 C 1011.390625 319.988281 1014.332031 319.089844 1016.949219 317.296875 C 1019.558594 315.503906 1021.789062 313.230469 1023.636719 310.476562 Z M 1027.609375 313.351562 "/>
<path fill-rule="nonzero" fill="rgb(59.599304%, 48.199463%, 27.49939%)" fill-opacity="1" d="M 318.597656 454.589844 L 325.808594 462.628906 C 328.578125 465.71875 328.371094 470.453125 325.34375 473.292969 L 273.421875 521.980469 C 270.257812 524.945312 265.261719 524.6875 262.425781 521.40625 L 254.253906 511.957031 C 251.523438 508.804688 251.832031 504.050781 254.9375 501.273438 L 307.828125 453.992188 C 310.96875 451.1875 315.789062 451.453125 318.597656 454.589844 "/>
<path fill-rule="nonzero" fill="rgb(63.899231%, 51.399231%, 28.999329%)" fill-opacity="1" d="M 387.484375 377.40625 L 382.917969 377.40625 L 382.917969 373.214844 L 387.484375 373.214844 Z M 387.484375 383.765625 L 382.917969 383.765625 L 382.917969 379.570312 L 387.484375 379.570312 Z M 380.5625 377.40625 L 375.996094 377.40625 L 375.996094 373.214844 L 380.5625 373.214844 Z M 380.5625 383.765625 L 375.996094 383.765625 L 375.996094 379.570312 L 380.5625 379.570312 Z M 382.105469 358.847656 L 360.292969 378.882812 L 367.964844 378.882812 L 367.964844 390.476562 L 394.8125 390.476562 L 394.8125 378.882812 L 402.503906 378.882812 Z M 367.964844 433.121094 L 394.8125 433.121094 L 394.8125 395.296875 L 367.964844 395.296875 Z M 367.964844 433.121094 "/>
</svg>
